Coordinates
version=1
nRows=10
nColumns=40
inDegrees=yes

Units are S.I. units (second, meters, Newtons, ...)
Angles are in degrees.

endheader
time	pelvis_tilt	pelvis_list	pelvis_rotation	pelvis_tx	pelvis_ty	pelvis_tz	hip_flexion_r	hip_adduction_r	hip_rotation_r	knee_angle_r	knee_angle_r_beta	ankle_angle_r	subtalar_angle_r	mtp_angle_r	hip_flexion_l	hip_adduction_l	hip_rotation_l	knee_angle_l	knee_angle_l_beta	ankle_angle_l	subtalar_angle_l	mtp_angle_l	lumbar_extension	lumbar_bending	lumbar_rotation	arm_flex_r	arm_add_r	arm_rot_r	elbow_flex_r	pro_sup_r	wrist_flex_r	wrist_dev_r	arm_flex_l	arm_add_l	arm_rot_l	elbow_flex_l	pro_sup_l	wrist_flex_l	wrist_dev_l
     43.85000000	     -4.77020270	     -5.68116949	      8.08485836	      1.07064808	      0.92290283	      0.46594895	      0.81268598	      4.21861700	    -20.67240200	      8.18208572	      8.18208572	     13.80644637	      2.81132259	     -6.69309052	     30.62483190	     -8.23104335	     -1.82540173	     19.92483873	     19.92483873	      2.31507557	     -8.43621421	      4.85716784	     -8.66636940	      6.25235028	      4.01701274	     39.26270557	    -19.56055630	    -12.74388562	    102.27619610	     44.74146353	      0.00000000	      0.00000000	    -10.07700741	     -6.46712225	      6.77155410	     31.56029551	     43.99754303	      0.00000000	      0.00000000
     43.86357143	     -4.70656835	     -5.71193190	      7.95827591	      1.07187959	      0.92206597	      0.46394261	      0.30867100	      4.15549380	    -20.47607488	      8.28143556	      8.28143556	     14.15444988	      2.83441957	     -6.77181311	     30.15404527	     -8.15035860	     -2.10711921	     20.45880536	     20.45880536	      2.20400262	     -8.89626684	      4.78978616	     -8.57206876	      6.19474261	      4.11634951	     38.57339984	    -19.30640224	    -12.67462836	    101.85883020	     44.75089260	      0.00000000	      0.00000000	     -9.78497539	     -6.71841057	      6.69862481	     31.64302357	     44.01748583	      0.00000000	      0.00000000
     43.87714286	     -4.59398115	     -5.70817593	      7.83276174	      1.07316168	      0.92137762	      0.46177374	     -0.20619924	      4.02980928	    -20.28412219	      8.47130779	      8.47130779	     14.48097814	      2.79458397	     -6.79519413	     29.68186452	     -8.03933909	     -2.18423386	     21.09716332	     21.09716332	      2.23505457	     -9.48882739	      4.59902423	     -8.53475541	      6.07628625	      4.22232068	     37.69662119	    -19.06312170	    -12.71695809	    101.10523955	     44.77379608	      0.00000000	      0.00000000	     -9.42969857	     -7.02153838	      6.59676737	     31.73195374	     44.04299058	      0.00000000	      0.00000000
     43.89071429	     -4.61967175	     -5.72562036	      7.71129038	      1.07423490	      0.92063714	      0.45942344	     -0.38413659	      3.83849750	    -19.99119253	      9.00846559	      9.00846559	     14.94976565	      2.47311302	     -6.39367498	     29.37318932	     -7.83793698	     -1.82099445	     21.64321242	     21.64321242	      2.03850648	    -10.75907976	      4.07003057	     -8.25374070	      5.95195376	      4.53931923	     36.98010503	    -18.95839161	    -13.61819894	     98.56130465	     44.88679397	      0.00000000	      0.00000000	     -8.83662600	     -7.28263861	      6.29271040	     31.74835313	     44.12446087	      0.00000000	      0.00000000
     43.90428571	     -4.44343119	     -5.65773347	      7.59966441	      1.07544575	      0.92037559	      0.45696807	     -0.89446102	      3.59773470	    -19.79501841	      9.33974140	      9.33974140	     15.20702836	      2.37379706	     -6.37353035	     28.89664837	     -7.68586115	     -1.73439161	     22.28562059	     22.28562059	      2.36292132	    -11.26685714	      3.78557918	     -8.37944550	      5.78396932	      4.41208736	     35.94045234	    -18.49749759	    -13.53446880	     97.89332582	     44.90163495	      0.00000000	      0.00000000	     -8.36429421	     -7.60561253	      6.18343872	     31.80245545	     44.15203253	      0.00000000	      0.00000000
     43.91785714	     -4.43551949	     -5.61393958	      7.47896720	      1.07630258	      0.92008316	      0.45428724	     -0.87123303	      3.24043596	    -19.43703307	     10.36061615	     10.36061615	     16.04763068	      1.94729665	     -4.77246046	     28.64253958	     -7.43226184	     -1.26629196	     22.85865247	     22.85865247	      2.35733413	    -12.55180599	      3.04211818	     -8.18141038	      5.59622875	      4.08139335	     35.61544399	    -17.66308321	    -14.12489203	     94.23181133	     45.05116022	      0.00000000	      0.00000000	     -7.65986159	     -7.65772275	      5.03875478	     30.99679156	     44.42039539	      0.00000000	      0.00000000
     43.93142857	     -4.36283824	     -5.53210527	      7.36150811	      1.07717820	      0.92007342	      0.45145433	     -0.95998274	      2.83563193	    -19.21222698	     11.25689392	     11.25689392	     16.31222907	      1.60317375	     -4.62543587	     28.38531833	     -7.22505151	     -1.04628342	     23.54091692	     23.54091692	      2.89567942	    -13.13791788	      2.88327467	     -8.18819405	      5.40491981	      4.28468348	     34.36085032	    -17.73830791	    -14.22305403	     92.43146922	     45.11044619	      0.00000000	      0.00000000	     -6.82424506	     -7.94769466	      4.62442511	     31.08113795	     44.51595509	      0.00000000	      0.00000000
     43.94500000	     -4.28203049	     -5.44594112	      7.24960411	      1.07796223	      0.92028240	      0.44845071	     -0.98965709	      2.39548611	    -18.97914663	     12.26087131	     12.26087131	     16.51064632	      1.19471966	     -4.44549317	     28.13272599	     -7.01173201	     -0.85515903	     24.19561740	     24.19561740	      3.53568653	    -13.63675458	      2.85672029	     -8.21283708	      5.22639211	      4.37945690	     33.16009148	    -17.64961067	    -14.35618966	     90.23240261	     45.18246493	      0.00000000	      0.00000000	     -5.90217429	     -8.22149384	      4.25158016	     30.96134705	     44.60497378	      0.00000000	      0.00000000
     43.95857143	     -4.16916615	     -5.34480351	      7.13010511	      1.07879385	      0.92072418	      0.44529003	     -1.03375050	      1.91972461	    -18.72221803	     13.30663113	     13.30663113	     16.64072578	      0.84229237	     -4.37638463	     27.80344698	     -6.79817508	     -0.73455473	     24.76748498	     24.76748498	      4.23171821	    -13.97354213	      2.81611088	     -8.26179734	      5.04602952	      4.40953566	     31.88407411	    -17.55338963	    -14.37364801	     88.11880361	     45.24654140	      0.00000000	      0.00000000	     -4.95551714	     -8.50338342	      3.96379428	     30.86780943	     44.67585659	      0.00000000	      0.00000000
     43.97214286	     -4.15788000	     -5.26484493	      6.98825066	      1.07941712	      0.92123802	      0.44201870	     -0.74699386	      1.37172568	    -18.50575601	     14.73704162	     14.73704162	     16.70264396	      0.30335381	     -4.28784679	     27.51738484	     -6.59776984	     -0.72713373	     25.17673258	     25.17673258	      4.98457241	    -14.16750086	      3.02064596	     -8.19688340	      4.91112798	      4.57929466	     30.78257667	    -17.49878622	    -14.32920141	     84.99570448	     45.34144125	      0.00000000	      0.00000000	     -3.78981259	     -8.71446861	      3.56568730	     30.51623700	     44.77383445	      0.00000000	      0.00000000
